<svg xmlns="http://www.w3.org/2000/svg" version="1.1" xmlns:xlink="http://www.w3.org/1999/xlink" xmlns:svgjs="http://svgjs.dev/svgjs" width="2000" height="1500" viewBox="0 0 2000 1500"><rect width="2000" height="1500" fill="#ffffff"></rect><g transform="matrix(0.75,0,0,0.75,249.090909090909,282.75364372469653)"><svg viewBox="0 0 396 247" data-background-color="#ffffff" preserveAspectRatio="xMidYMid meet" height="1247" width="2000" xmlns="http://www.w3.org/2000/svg" xmlns:xlink="http://www.w3.org/1999/xlink"><g id="tight-bounds" transform="matrix(1,0,0,1,0.2400000000000091,-0.09999999999999432)"><svg viewBox="0 0 395.52 247.2" height="247.2" width="395.52"><g><svg></svg></g><g><svg viewBox="0 0 395.52 247.2" height="247.2" width="395.52"><g transform="matrix(1,0,0,1,75.54432000000001,47.387812953932155)"><svg viewBox="0 0 244.43135999999996 152.42437409213568" height="152.42437409213568" width="244.43135999999996"><g><svg viewBox="0 0 244.43135999999996 152.42437409213568" height="152.42437409213568" width="244.43135999999996"><g><svg viewBox="0 0 244.43136 152.4243740921357" height="152.42437409213568" width="244.43135999999996"><g><svg viewBox="0 0 244.43136 152.4243740921357" height="152.4243740921357" width="244.43136"><g id="textblocktransform"><svg viewBox="0 0 244.43136 152.4243740921357" height="152.4243740921357" width="244.43136" id="textblock"><g><svg viewBox="0 0 244.43136 152.4243740921357" height="152.4243740921357" width="244.43136"><g transform="matrix(1,0,0,1,0,0)"><svg width="244.43136" viewBox="2.1 -37.1 59.493478236931985 37.1" height="152.4243740921357" data-palette-color="#41907a"><path d="M2.1-33.95L2.1-36.55Q2.1-36.8 2.23-36.95 2.35-37.1 2.7-37.1L2.7-37.1 29.6-37.1Q29.9-37.1 30.05-36.95 30.2-36.8 30.2-36.55L30.2-36.55 30.2-33.95Q30.2-33.45 29.6-33.45L29.6-33.45 19.45-33.45Q18.9-33.45 18.9-32.95L18.9-32.95 18.9-0.65Q18.9 0 18.3 0L18.3 0 14.7 0Q14.1 0 14.1-0.65L14.1-0.65 14.1-32.9Q14.1-33.45 13.6-33.45L13.6-33.45 2.7-33.45Q2.1-33.45 2.1-33.95L2.1-33.95ZM30.2 0L30.2 0Q29.9 0 29.77-0.23 29.65-0.45 29.75-0.85L29.75-0.85 42.7-36.4Q42.85-36.75 43.05-36.93 43.25-37.1 43.7-37.1L43.7-37.1 47.6-37.1Q48.5-37.1 48.75-36.35L48.75-36.35 61.55-0.85Q61.65-0.55 61.52-0.28 61.4 0 61.05 0L61.05 0 57.5 0Q56.9 0 56.7-0.5L56.7-0.5 53.25-10.2Q53.15-10.4 53.05-10.5 52.95-10.6 52.65-10.6L52.65-10.6 38.1-10.6Q37.65-10.6 37.5-10.2L37.5-10.2 33.95-0.45Q33.9-0.25 33.72-0.13 33.55 0 33.2 0L33.2 0 30.2 0ZM39.25-14.4L51.35-14.4Q51.95-14.4 51.75-15.05L51.75-15.05 45.75-31.5Q45.55-31.95 45.37-31.95 45.2-31.95 45.05-31.5L45.05-31.5 38.95-14.95Q38.7-14.4 39.25-14.4L39.25-14.4Z" opacity="1" transform="matrix(1,0,0,1,0,0)" fill="#41907a" class="wordmark-text-0" data-fill-palette-color="primary" id="text-0"></path></svg></g></svg></g></svg></g></svg></g></svg></g></svg></g></svg></g><g><path d="M245.816 0c68.262 0 123.6 55.338 123.6 123.6 0 68.262-55.338 123.6-123.6 123.6-30.521 0-58.457-11.062-80.02-29.396h11.08c19.318 14.161 43.152 22.523 68.94 22.523 64.467 0 116.727-52.261 116.727-116.727 0-64.467-52.261-116.727-116.727-116.727-25.788 0-49.622 8.362-68.94 22.523l-11.08 0c21.562-18.334 49.499-29.396 80.02-29.396z" fill="#41907a" stroke="transparent" data-fill-palette-color="tertiary"></path></g></svg></g><defs></defs></svg><rect width="395.52" height="247.2" fill="none" stroke="none" visibility="hidden"></rect></g></svg></g></svg>